<svg width="20" height="20" viewBox="0 0 20 20" fill="none" xmlns="http://www.w3.org/2000/svg">
<g clip-path="url(#clip0_110_1241)">
<path d="M16.6989 14.0475C18.8252 12.15 20.0002 10 20.0002 10C20.0002 10 16.2502 3.125 10.0002 3.125C8.79969 3.12913 7.61276 3.37928 6.5127 3.86L7.4752 4.82375C8.28449 4.52894 9.13888 4.3771 10.0002 4.375C12.6502 4.375 14.8489 5.835 16.4602 7.44625C17.2356 8.22586 17.9308 9.08141 18.5352 10C18.4627 10.1088 18.3827 10.2288 18.2914 10.36C17.8727 10.96 17.2539 11.76 16.4602 12.5538C16.2539 12.76 16.0389 12.9638 15.8139 13.1613L16.6989 14.0475Z" fill="black"/>
<path d="M14.1212 11.4702C14.4001 10.69 14.4518 9.84663 14.2702 9.03822C14.0885 8.22982 13.6811 7.48961 13.0952 6.90372C12.5093 6.31784 11.7691 5.91037 10.9607 5.72874C10.1523 5.5471 9.3089 5.59876 8.5287 5.8777L9.55745 6.90645C10.0378 6.83769 10.5276 6.88175 10.988 7.03515C11.4484 7.18855 11.8668 7.44707 12.2099 7.79021C12.5531 8.13336 12.8116 8.55171 12.965 9.01211C13.1184 9.47251 13.1625 9.96231 13.0937 10.4427L14.1212 11.4702ZM10.4425 13.0939L11.47 14.1214C10.6898 14.4004 9.84639 14.452 9.03798 14.2704C8.22957 14.0888 7.48936 13.6813 6.90348 13.0954C6.3176 12.5095 5.91013 11.7693 5.72849 10.9609C5.54685 10.1525 5.59851 9.30915 5.87745 8.52895L6.9062 9.5577C6.83745 10.0381 6.88151 10.5279 7.03491 10.9883C7.18831 11.4487 7.44682 11.867 7.78997 12.2102C8.13312 12.5533 8.55147 12.8118 9.01187 12.9652C9.47227 13.1186 9.96207 13.1627 10.4425 13.0939Z" fill="black"/>
<path d="M4.1875 6.83762C3.9625 7.03762 3.74625 7.24012 3.54 7.44637C2.76456 8.22598 2.0694 9.08153 1.465 10.0001L1.70875 10.3601C2.1275 10.9601 2.74625 11.7601 3.54 12.5539C5.15125 14.1651 7.35125 15.6251 10 15.6251C10.895 15.6251 11.7375 15.4589 12.525 15.1751L13.4875 16.1401C12.3874 16.6208 11.2005 16.8709 10 16.8751C3.75 16.8751 0 10.0001 0 10.0001C0 10.0001 1.17375 7.84887 3.30125 5.95262L4.18625 6.83887L4.1875 6.83762ZM17.0575 17.9426L2.0575 2.94262L2.9425 2.05762L17.9425 17.0576L17.0575 17.9426Z" fill="black"/>
</g>
<defs>
<clipPath id="clip0_110_1241">
<rect width="20" height="20" fill="white"/>
</clipPath>
</defs>
</svg>
