<svg width="40" height="41" viewBox="0 0 40 41" fill="none" xmlns="http://www.w3.org/2000/svg">
<g clip-path="url(#clip0_22_308)">
<path fill-rule="evenodd" clip-rule="evenodd" d="M26.9944 24.0768C26.6095 23.8843 24.7223 22.9569 24.371 22.8278C24.0197 22.6999 23.7639 22.6366 23.5069 23.0215C23.2511 23.4038 22.5162 24.2693 22.2927 24.525C22.068 24.7821 21.8445 24.8131 21.4609 24.6219C21.0772 24.4281 19.8398 24.0238 18.3738 22.7167C17.2332 21.6988 16.4621 20.4421 16.2387 20.0571C16.0152 19.6735 16.2141 19.4656 16.4066 19.2744C16.5797 19.1026 16.7902 18.8262 16.9827 18.6027C17.1751 18.378 17.2384 18.2178 17.3663 17.9608C17.4955 17.705 17.4309 17.4816 17.334 17.2891C17.2384 17.0966 16.4712 15.2069 16.1508 14.4384C15.8395 13.6905 15.5231 13.7926 15.288 13.7796C15.0632 13.7693 14.8075 13.7667 14.5518 13.7667C14.296 13.7667 13.8801 13.8623 13.5287 14.2472C13.1761 14.6308 12.1854 15.5596 12.1854 17.4493C12.1854 19.3377 13.5597 21.1628 13.7522 21.4198C13.9447 21.6756 16.4583 25.5532 20.3087 27.2156C21.2258 27.6108 21.9401 27.8472 22.4968 28.0228C23.4165 28.3161 24.2535 28.2747 24.9148 28.1753C25.651 28.0655 27.1855 27.2466 27.5059 26.3501C27.8249 25.4537 27.8249 24.6852 27.7293 24.525C27.6337 24.3648 27.378 24.2693 26.9931 24.0768H26.9944ZM19.991 33.639H19.9858C17.6988 33.6394 15.4538 33.0246 13.4861 31.8591L13.0211 31.5827L8.18771 32.8511L9.47808 28.1391L9.17454 27.656C7.89597 25.6208 7.21934 23.2653 7.22283 20.8618C7.22542 13.8223 12.9527 8.09501 19.9961 8.09501C23.4061 8.09501 26.612 9.42543 29.0223 11.8383C30.2111 13.0222 31.1534 14.4301 31.7946 15.9805C32.4358 17.5309 32.7631 19.1931 32.7578 20.8709C32.7552 27.9105 27.028 33.639 19.991 33.639ZM30.8565 10.0054C29.4333 8.57283 27.74 7.43695 25.8746 6.66359C24.0093 5.89022 22.009 5.49473 19.9897 5.50005C11.5241 5.50005 4.63175 12.3911 4.62917 20.8606C4.62524 23.5559 5.33232 26.2047 6.67904 28.5395L4.5 36.5001L12.6427 34.3636C14.8952 35.5909 17.4194 36.2339 19.9845 36.234H19.991C28.4565 36.234 35.3489 29.3429 35.3515 20.8722C35.3577 18.8537 34.9636 16.8539 34.1921 14.9887C33.4205 13.1234 32.2868 11.4297 30.8565 10.0054Z" fill="white"/>
</g>
<defs>
<clipPath id="clip0_22_308">
<rect width="31" height="31" fill="white" transform="translate(4.5 5.5)"/>
</clipPath>
</defs>
</svg>
