<svg width="25" height="24" viewBox="0 0 25 24" fill="none" xmlns="http://www.w3.org/2000/svg">
<g clip-path="url(#clip0_11_260)">
<path d="M13.4877 23C13.3502 23.0008 13.2139 22.9726 13.0866 22.917C12.9593 22.8614 12.8435 22.7794 12.7459 22.6759L4.6273 13.9803C3.60894 12.8796 3.03772 11.3935 3.03772 9.84492C3.03772 8.29631 3.60894 6.81023 4.6273 5.70952C5.65363 4.61477 7.04389 4 8.49329 4C9.94268 4 11.3329 4.61477 12.3593 5.70952L13.4877 6.91661L14.6162 5.70952C15.6425 4.61477 17.0328 4 18.4822 4C19.9315 4 21.3218 4.61477 22.3481 5.70952C23.3665 6.81023 23.9377 8.29631 23.9377 9.84492C23.9377 11.3935 23.3665 12.8796 22.3481 13.9803L14.2296 22.6759C14.1319 22.7794 14.0162 22.8614 13.8888 22.917C13.7615 22.9726 13.6252 23.0008 13.4877 23ZM8.49329 6.23483C8.05097 6.23268 7.61266 6.32444 7.20373 6.50478C6.7948 6.68513 6.42339 6.95047 6.11101 7.28544C5.47997 7.96401 5.12574 8.88221 5.12574 9.83933C5.12574 10.7965 5.47997 11.7147 6.11101 12.3932L13.4877 20.2952L20.8644 12.3932C21.4955 11.7147 21.8497 10.7965 21.8497 9.83933C21.8497 8.88221 21.4955 7.96401 20.8644 7.28544C20.2204 6.63463 19.3681 6.27204 18.4822 6.27204C17.5962 6.27204 16.7439 6.63463 16.0999 7.28544L14.2296 9.29726C14.1324 9.40202 14.0169 9.48517 13.8895 9.54191C13.7622 9.59865 13.6257 9.62787 13.4877 9.62787C13.3498 9.62787 13.2132 9.59865 13.0859 9.54191C12.9586 9.48517 12.843 9.40202 12.7459 9.29726L10.8756 7.28544C10.5632 6.95047 10.1918 6.68513 9.78285 6.50478C9.37392 6.32444 8.9356 6.23268 8.49329 6.23483Z" fill="black"/>
</g>
<defs>
<clipPath id="clip0_11_260">
<rect width="24" height="24" fill="white" transform="translate(0.96228)"/>
</clipPath>
</defs>
</svg>
