<svg width="25" height="24" viewBox="0 0 25 24" fill="none" xmlns="http://www.w3.org/2000/svg">
<g clip-path="url(#clip0_9_59)">
<path fill-rule="evenodd" clip-rule="evenodd" d="M13.1132 21.9C18.5807 21.9 23.0132 17.4676 23.0132 12C23.0132 6.53245 18.5807 2.1 13.1132 2.1C7.64561 2.1 3.21316 6.53245 3.21316 12C3.21316 17.4676 7.64561 21.9 13.1132 21.9ZM13.1132 23C19.1885 23 24.1132 18.0753 24.1132 12C24.1132 5.9247 19.1885 1 13.1132 1C7.03786 1 2.11316 5.9247 2.11316 12C2.11316 18.0753 7.03786 23 13.1132 23Z" fill="black"/>
<path d="M6.51315 18.3965C6.51315 17.8284 6.93775 17.3482 7.50315 17.2855C11.7464 16.8158 14.4992 16.8582 18.7331 17.296C18.9445 17.3182 19.1449 17.4015 19.3097 17.5357C19.4746 17.6699 19.5968 17.8492 19.6614 18.0517C19.7261 18.2543 19.7303 18.4712 19.6737 18.6761C19.617 18.881 19.5019 19.065 19.3425 19.2056C14.3457 23.561 11.4901 23.5011 6.86515 19.21C6.63965 19.001 6.51315 18.704 6.51315 18.3971V18.3965Z" fill="black"/>
<path fill-rule="evenodd" clip-rule="evenodd" d="M18.6764 17.8427C14.4761 17.4082 11.7629 17.3675 7.56312 17.8322C7.42487 17.8483 7.29743 17.9149 7.20518 18.0191C7.11293 18.1233 7.06237 18.2579 7.06317 18.3971C7.06317 18.5544 7.12862 18.7034 7.23917 18.8068C9.53157 20.9331 11.2685 21.894 12.9663 21.9C14.6702 21.9061 16.5006 20.9529 18.9811 18.7914C19.0599 18.7213 19.1166 18.6298 19.1444 18.528C19.1722 18.4262 19.1698 18.3185 19.1375 18.2181C19.1052 18.1177 19.0445 18.0288 18.9626 17.9622C18.8808 17.8957 18.7813 17.8543 18.6764 17.8432V17.8427ZM7.44267 16.7388C11.7305 16.2642 14.5234 16.3071 18.7903 16.7487C19.1083 16.7819 19.4098 16.9071 19.6578 17.109C19.9058 17.3109 20.0896 17.5808 20.1866 17.8855C20.2836 18.1902 20.2896 18.5166 20.204 18.8247C20.1183 19.1329 19.9447 19.4093 19.7044 19.6203C17.1881 21.8137 15.0926 23.0083 12.963 23C10.8274 22.9923 8.82427 21.7774 6.49172 19.6131C6.32471 19.4576 6.19158 19.2692 6.10064 19.0599C6.00969 18.8506 5.9629 18.6247 5.96317 18.3965C5.96237 17.9865 6.11288 17.5905 6.38588 17.2845C6.65888 16.9785 7.03517 16.784 7.44267 16.7383V16.7388Z" fill="black"/>
<path d="M17.5132 9.79999C17.5132 10.9669 17.0496 12.0861 16.2244 12.9113C15.3993 13.7364 14.2801 14.2 13.1132 14.2C11.9462 14.2 10.8271 13.7364 10.0019 12.9113C9.17674 12.0861 8.71317 10.9669 8.71317 9.79999C8.71317 8.63304 9.17674 7.51388 10.0019 6.68872C10.8271 5.86356 11.9462 5.39999 13.1132 5.39999C14.2801 5.39999 15.3993 5.86356 16.2244 6.68872C17.0496 7.51388 17.5132 8.63304 17.5132 9.79999Z" fill="black"/>
<path fill-rule="evenodd" clip-rule="evenodd" d="M13.1132 13.1C13.9884 13.1 14.8277 12.7523 15.4466 12.1334C16.0655 11.5146 16.4132 10.6752 16.4132 9.79999C16.4132 8.92478 16.0655 8.08541 15.4466 7.46654C14.8277 6.84767 13.9884 6.49999 13.1132 6.49999C12.238 6.49999 11.3986 6.84767 10.7797 7.46654C10.1608 8.08541 9.81317 8.92478 9.81317 9.79999C9.81317 10.6752 10.1608 11.5146 10.7797 12.1334C11.3986 12.7523 12.238 13.1 13.1132 13.1ZM13.1132 14.2C14.2801 14.2 15.3993 13.7364 16.2244 12.9113C17.0496 12.0861 17.5132 10.9669 17.5132 9.79999C17.5132 8.63304 17.0496 7.51388 16.2244 6.68872C15.3993 5.86356 14.2801 5.39999 13.1132 5.39999C11.9462 5.39999 10.8271 5.86356 10.0019 6.68872C9.17674 7.51388 8.71317 8.63304 8.71317 9.79999C8.71317 10.9669 9.17674 12.0861 10.0019 12.9113C10.8271 13.7364 11.9462 14.2 13.1132 14.2Z" fill="black"/>
</g>
<defs>
<clipPath id="clip0_9_59">
<rect width="24" height="24" fill="white" transform="translate(0.96228)"/>
</clipPath>
</defs>
</svg>
