<svg width="25" height="24" viewBox="0 0 25 24" fill="none" xmlns="http://www.w3.org/2000/svg">
<g clip-path="url(#clip0_22_125)">
<path d="M23.3 17.4V6.60005C23.3 5.60405 22.496 4.80005 21.5 4.80005H4.688C3.692 4.80005 2.888 5.60405 2.888 6.60005V17.4C2.888 18.396 3.692 19.2 4.688 19.2H21.5C22.496 19.2 23.3 18.396 23.3 17.4ZM21.728 6.46805C22.124 6.86405 21.908 7.27205 21.692 7.47605L16.82 11.94L21.5 16.812C21.644 16.98 21.74 17.2441 21.572 17.4241C21.416 17.616 21.056 17.604 20.9 17.484L15.656 13.008L13.088 15.348L10.532 13.008L5.288 17.484C5.132 17.604 4.772 17.616 4.616 17.4241C4.448 17.2441 4.544 16.98 4.688 16.812L9.368 11.94L4.496 7.47605C4.28 7.27205 4.064 6.86405 4.46 6.46805C4.856 6.07205 5.264 6.26405 5.6 6.55205L13.088 12.6L20.588 6.55205C20.924 6.26405 21.332 6.07205 21.728 6.46805Z" fill="#282828"/>
</g>
<defs>
<clipPath id="clip0_22_125">
<rect width="24" height="24" fill="white" transform="translate(0.5)"/>
</clipPath>
</defs>
</svg>
