<svg width="25" height="24" viewBox="0 0 25 24" fill="none" xmlns="http://www.w3.org/2000/svg">
<path d="M22.5248 7.5H18.3998V6.9375C18.3987 5.51902 17.8439 4.157 16.8536 3.14141C15.8633 2.12582 14.5158 1.53689 13.0977 1.5H12.8268C11.4088 1.53689 10.0612 2.12582 9.07093 3.14141C8.08064 4.157 7.52589 5.51902 7.52478 6.9375V7.5H3.39978C3.35005 7.5 3.30236 7.51975 3.2672 7.55492C3.23203 7.59008 3.21228 7.63777 3.21228 7.6875V21.75C3.21228 21.9489 3.2913 22.1397 3.43195 22.2803C3.5726 22.421 3.76337 22.5 3.96228 22.5H21.9623C22.1612 22.5 22.352 22.421 22.4926 22.2803C22.6333 22.1397 22.7123 21.9489 22.7123 21.75V7.6875C22.7123 7.63777 22.6925 7.59008 22.6574 7.55492C22.6222 7.51975 22.5745 7.5 22.5248 7.5ZM9.39978 6.98438C9.39978 5.02312 10.9659 3.39562 12.9271 3.375C13.3978 3.37085 13.8646 3.45991 14.3006 3.63704C14.7367 3.81417 15.1334 4.07587 15.4678 4.40704C15.8023 4.73821 16.0679 5.13231 16.2493 5.56662C16.4307 6.00092 16.5243 6.46683 16.5248 6.9375V7.5H9.39978V6.98438ZM18.2123 11.25C18.2123 12.6424 17.6592 13.9777 16.6746 14.9623C15.69 15.9469 14.3547 16.5 12.9623 16.5C11.5699 16.5 10.2345 15.9469 9.24997 14.9623C8.2654 13.9777 7.71228 12.6424 7.71228 11.25V9.75H9.21228V11.25C9.21228 12.2446 9.60737 13.1984 10.3106 13.9017C11.0139 14.6049 11.9677 15 12.9623 15C13.9568 15 14.9107 14.6049 15.6139 13.9017C16.3172 13.1984 16.7123 12.2446 16.7123 11.25V9.75H18.2123V11.25Z" fill="black"/>
</svg>
