<svg width="25" height="24" viewBox="0 0 25 24" fill="none" xmlns="http://www.w3.org/2000/svg">
<g clip-path="url(#clip0_16_196)">
<path d="M14.25 14.75H12.75C12.7494 14.1534 12.5122 13.5815 12.0903 13.1597C11.6685 12.7378 11.0966 12.5006 10.5 12.5V11C11.4942 11.0012 12.4473 11.3967 13.1503 12.0997C13.8533 12.8027 14.2488 13.7558 14.25 14.75Z" fill="#282828"/>
<path d="M21.2493 10.5H19.7493C19.7477 9.10811 19.1941 7.77367 18.2098 6.78945C17.2256 5.80523 15.8912 5.25159 14.4993 5.25001V3.75001C16.2889 3.75199 18.0046 4.46379 19.2701 5.72923C20.5355 6.99467 21.2473 8.7104 21.2493 10.5ZM15.499 16.8615L17.179 15.1815C17.4039 14.9566 17.6898 14.8026 18.0014 14.7386C18.313 14.6746 18.6365 14.7034 18.9318 14.8215L20.9778 15.6405C21.2793 15.7612 21.5378 15.9694 21.7199 16.2384C21.902 16.5073 21.9993 16.8247 21.9993 17.1495V20.8703C21.9998 21.0914 21.9552 21.3103 21.8682 21.5136C21.7812 21.7169 21.6536 21.9004 21.4932 22.0526C21.3329 22.2049 21.1431 22.3229 20.9356 22.3993C20.728 22.4757 20.5071 22.5089 20.2863 22.497C5.94478 21.6045 3.04828 9.45751 2.51053 4.80601C2.48449 4.5786 2.50688 4.34826 2.57624 4.13013C2.6456 3.91201 2.76036 3.71104 2.91296 3.54044C3.06556 3.36984 3.25255 3.23349 3.46163 3.14034C3.67071 3.04719 3.89714 2.99937 4.12603 3.00001H7.78078C8.10558 3 8.42294 3.0973 8.69191 3.27938C8.96088 3.46146 9.16912 3.71995 9.28978 4.02151L10.108 6.06751C10.2261 6.36284 10.2549 6.68633 10.191 6.99788C10.127 7.30944 9.97296 7.59538 9.74803 7.82026L8.06803 9.50026C8.06803 9.50026 8.99953 16.0493 15.499 16.8615Z" fill="#282828"/>
</g>
<defs>
<clipPath id="clip0_16_196">
<rect width="24" height="24" fill="white" transform="translate(0.5)"/>
</clipPath>
</defs>
</svg>
