<svg width="34" height="60" viewBox="0 0 34 60" fill="none" xmlns="http://www.w3.org/2000/svg">
<rect x="1" y="1" width="32" height="58" rx="16" stroke="#F1F1F1" stroke-width="2"/>
<g clip-path="url(#clip0_11_174)">
<path d="M22.6267 36.0417C22.5433 35.8657 22.4091 35.7778 22.2239 35.7778H19.1128V18.4444C19.1128 18.3148 19.0711 18.2083 18.9878 18.125C18.9044 18.0417 18.798 18 18.6683 18H16.0017C15.872 18 15.7656 18.0417 15.6822 18.125C15.5989 18.2083 15.5572 18.3148 15.5572 18.4444V35.7778H12.4461C12.2517 35.7778 12.1174 35.8657 12.0433 36.0417C11.9693 36.2176 11.9924 36.3796 12.1128 36.5278L16.9739 41.8611C17.0665 41.9537 17.173 42 17.2933 42C17.423 42 17.5341 41.9537 17.6267 41.8611L22.5572 36.5278C22.6776 36.3796 22.7007 36.2176 22.6267 36.0417Z" fill="#F1F1F1"/>
</g>
<defs>
<clipPath id="clip0_11_174">
<rect width="10.67" height="24" fill="white" transform="translate(12 18)"/>
</clipPath>
</defs>
</svg>
