<svg width="30" height="30" viewBox="0 0 30 30" fill="none" xmlns="http://www.w3.org/2000/svg">
<rect width="30" height="30" fill="white"/>
<path fill-rule="evenodd" clip-rule="evenodd" d="M15.3125 4.5C9.61719 4.5 5 9.11719 5 14.8125C5 20.5078 9.61719 25.125 15.3125 25.125C21.0078 25.125 25.625 20.5078 25.625 14.8125C25.625 9.11719 21.0078 4.5 15.3125 4.5ZM11.5625 13.875C11.3139 13.875 11.0754 13.9738 10.8996 14.1496C10.7238 14.3254 10.625 14.5639 10.625 14.8125C10.625 15.0611 10.7238 15.2996 10.8996 15.4754C11.0754 15.6512 11.3139 15.75 11.5625 15.75H19.0625C19.3111 15.75 19.5496 15.6512 19.7254 15.4754C19.9012 15.2996 20 15.0611 20 14.8125C20 14.5639 19.9012 14.3254 19.7254 14.1496C19.5496 13.9738 19.3111 13.875 19.0625 13.875H11.5625Z" fill="#E10000" fill-opacity="0.5"/>
</svg>
