<svg width="34" height="61" viewBox="0 0 34 61" fill="none" xmlns="http://www.w3.org/2000/svg">
<rect x="33" y="59.5" width="32" height="58" rx="16" transform="rotate(-180 33 59.5)" fill="white" stroke="#818383" stroke-width="2"/>
<g clip-path="url(#clip0_398_3387)">
<g clip-path="url(#clip1_398_3387)">
<path d="M11.3733 24.4583C11.4567 24.6343 11.5909 24.7222 11.7761 24.7222H14.8872L14.8872 42.0556C14.8872 42.1852 14.9289 42.2917 15.0122 42.375C15.0956 42.4583 15.202 42.5 15.3317 42.5H17.9983C18.128 42.5 18.2344 42.4583 18.3178 42.375C18.4011 42.2917 18.4428 42.1852 18.4428 42.0556L18.4428 24.7222H21.5539C21.7483 24.7222 21.8826 24.6343 21.9567 24.4583C22.0307 24.2824 22.0076 24.1204 21.8872 23.9722L17.0261 18.6389C16.9335 18.5463 16.827 18.5 16.7067 18.5C16.577 18.5 16.4659 18.5463 16.3733 18.6389L11.4428 23.9722C11.3224 24.1204 11.2993 24.2824 11.3733 24.4583Z" fill="#818383"/>
</g>
</g>
<defs>
<clipPath id="clip0_398_3387">
<rect width="24" height="24" fill="white" transform="translate(29 42.5) rotate(-180)"/>
</clipPath>
<clipPath id="clip1_398_3387">
<rect width="10.67" height="24" fill="white" transform="translate(22 42.5) rotate(-180)"/>
</clipPath>
</defs>
</svg>
