<svg width="25" height="24" viewBox="0 0 25 24" fill="none" xmlns="http://www.w3.org/2000/svg">
<g clip-path="url(#clip0_22_148)">
<path d="M20.66 6.84C17.78 2.4 11.9 1.08 7.33999 3.84C2.89999 6.6 1.45999 12.6 4.34 17.04L4.58 17.4L3.62 21L7.22 20.04L7.58 20.28C9.14 21.12 10.82 21.6 12.5 21.6C14.3 21.6 16.1 21.12 17.66 20.16C22.1 17.28 23.42 11.4 20.66 6.84ZM18.14 16.08C17.66 16.8 17.06 17.28 16.22 17.4C15.74 17.4 15.14 17.64 12.74 16.68C10.7 15.72 9.02 14.16 7.81999 12.36C7.1 11.52 6.74 10.44 6.62 9.36C6.62 8.4 6.98 7.56 7.58 6.96C7.82 6.72 8.06 6.6 8.3 6.6H8.9C9.14 6.6 9.38 6.6 9.5 7.08C9.74 7.68 10.34 9.12 10.34 9.24C10.46 9.36 10.46 9.6 10.34 9.72C10.46 9.96 10.34 10.2 10.22 10.32C10.1 10.44 9.98 10.68 9.86 10.8C9.62 10.92 9.5 11.16 9.62 11.4C10.1 12.12 10.7 12.84 11.3 13.44C12.02 14.04 12.74 14.52 13.58 14.88C13.82 15 14.06 15 14.18 14.76C14.3 14.52 14.9 13.92 15.14 13.68C15.38 13.44 15.5 13.44 15.74 13.56L17.66 14.52C17.9 14.64 18.14 14.76 18.26 14.88C18.38 15.24 18.38 15.72 18.14 16.08Z" fill="#282828"/>
</g>
<defs>
<clipPath id="clip0_22_148">
<rect width="24" height="24" fill="white" transform="translate(0.5)"/>
</clipPath>
</defs>
</svg>
