<svg width="30" height="70" viewBox="0 0 30 70" fill="none" xmlns="http://www.w3.org/2000/svg">
<rect x="1" y="1" width="28" height="68" rx="14" stroke="#F1F1F1" stroke-width="2"/>
<g clip-path="url(#clip0_11_174)">
<path d="M20.6267 41.0417C20.5433 40.8657 20.4091 40.7778 20.2239 40.7778H17.1128V23.4444C17.1128 23.3148 17.0711 23.2083 16.9878 23.125C16.9044 23.0417 16.798 23 16.6683 23H14.0017C13.872 23 13.7656 23.0417 13.6822 23.125C13.5989 23.2083 13.5572 23.3148 13.5572 23.4444V40.7778H10.4461C10.2517 40.7778 10.1174 40.8657 10.0433 41.0417C9.96926 41.2176 9.99241 41.3796 10.1128 41.5278L14.9739 46.8611C15.0665 46.9537 15.173 47 15.2933 47C15.423 47 15.5341 46.9537 15.6267 46.8611L20.5572 41.5278C20.6776 41.3796 20.7007 41.2176 20.6267 41.0417Z" fill="#F1F1F1"/>
</g>
<defs>
<clipPath id="clip0_11_174">
<rect width="10.67" height="24" fill="white" transform="translate(10 23)"/>
</clipPath>
</defs>
</svg>
