<svg width="25" height="25" viewBox="0 0 25 25" fill="none" xmlns="http://www.w3.org/2000/svg">
<path fill-rule="evenodd" clip-rule="evenodd" d="M12.5 1.5C6.425 1.5 1.5 6.425 1.5 12.5C1.5 18.575 6.425 23.5 12.5 23.5C18.575 23.5 23.5 18.575 23.5 12.5C23.5 6.425 18.575 1.5 12.5 1.5ZM17.268 10.64C17.3558 10.5396 17.4226 10.4227 17.4646 10.2962C17.5065 10.1696 17.5227 10.0359 17.5123 9.90298C17.5018 9.77005 17.4648 9.64056 17.4036 9.52213C17.3423 9.40369 17.258 9.29871 17.1555 9.21334C17.0531 9.12798 16.9346 9.06396 16.8071 9.02506C16.6796 8.98616 16.5455 8.97316 16.4129 8.98683C16.2802 9.00049 16.1517 9.04055 16.0347 9.10463C15.9178 9.16872 15.8149 9.25554 15.732 9.36L11.432 14.519L9.207 12.293C9.0184 12.1108 8.7658 12.01 8.5036 12.0123C8.2414 12.0146 7.99059 12.1198 7.80518 12.3052C7.61977 12.4906 7.5146 12.7414 7.51233 13.0036C7.51005 13.2658 7.61084 13.5184 7.793 13.707L10.793 16.707C10.8913 16.8052 11.0089 16.8818 11.1384 16.9321C11.2679 16.9823 11.4065 17.005 11.5453 16.9986C11.684 16.9923 11.82 16.9572 11.9444 16.8954C12.0688 16.8337 12.1791 16.7467 12.268 16.64L17.268 10.64Z" fill="#F6CDB3"/>
</svg>
