<svg width="40" height="41" viewBox="0 0 40 41" fill="none" xmlns="http://www.w3.org/2000/svg">
<g clip-path="url(#clip0_22_298)">
<path fill-rule="evenodd" clip-rule="evenodd" d="M34.2896 12.6828C34.504 11.9775 34.2896 11.4583 33.2627 11.4583H29.8721C29.0093 11.4583 28.6114 11.9065 28.3957 12.4012C28.3957 12.4012 26.6713 16.5293 24.2288 19.2108C23.4383 19.9884 23.0792 20.2351 22.6478 20.2351C22.4321 20.2351 22.1079 19.9884 22.1079 19.2819V12.6828C22.1079 11.8354 21.8702 11.4583 21.152 11.4583H15.82C15.2814 11.4583 14.9572 11.8509 14.9572 12.2242C14.9572 13.0263 16.1791 13.2123 16.3044 15.4702V20.3759C16.3044 21.4519 16.1068 21.6469 15.6754 21.6469C14.5258 21.6469 11.7293 17.4994 10.0695 12.7538C9.74792 11.8303 9.42242 11.4583 8.55571 11.4583H5.1625C4.19375 11.4583 4 11.9065 4 12.4012C4 13.2821 5.14958 17.6583 9.35396 23.4462C12.1569 27.3987 16.1029 29.5416 19.6976 29.5416C21.8534 29.5416 22.1195 29.0663 22.1195 28.246V25.2584C22.1195 24.3065 22.3236 24.1166 23.0069 24.1166C23.5106 24.1166 24.3722 24.3646 26.3846 26.2698C28.6837 28.5289 29.0622 29.5416 30.3565 29.5416H33.7471C34.7158 29.5416 35.2015 29.0663 34.9225 28.1259C34.6151 27.1908 33.5172 25.8332 32.0615 24.2225C31.271 23.3054 30.0852 22.3173 29.7248 21.8226C29.2224 21.1884 29.3657 20.9055 29.7248 20.341C29.7248 20.341 33.8582 14.6241 34.2883 12.6828H34.2896Z" fill="white"/>
</g>
<defs>
<clipPath id="clip0_22_298">
<rect width="31" height="31" fill="white" transform="translate(4 5)"/>
</clipPath>
</defs>
</svg>
