<svg width="25" height="25" viewBox="0 0 25 25" fill="none" xmlns="http://www.w3.org/2000/svg">
<path d="M12.3114 16.8114C12.4317 16.6908 12.4994 16.5274 12.4994 16.3571C12.4994 16.1867 12.4317 16.0233 12.3114 15.9028L9.55136 13.1428L16.9999 13.1428C17.1704 13.1428 17.3339 13.0751 17.4545 12.9545C17.5751 12.8339 17.6428 12.6704 17.6428 12.4999C17.6428 12.3294 17.5751 12.1659 17.4545 12.0454C17.3339 11.9248 17.1704 11.8571 16.9999 11.8571L9.55136 11.8571L12.3114 9.09707C12.3745 9.03822 12.4252 8.96725 12.4603 8.88839C12.4955 8.80954 12.5143 8.72441 12.5159 8.63809C12.5174 8.55177 12.5015 8.46604 12.4692 8.38599C12.4368 8.30594 12.3887 8.23323 12.3277 8.17218C12.2666 8.11114 12.1939 8.06301 12.1139 8.03068C12.0338 7.99835 11.9481 7.98247 11.8618 7.984C11.7755 7.98552 11.6903 8.00441 11.6115 8.03955C11.5326 8.07468 11.4616 8.12534 11.4028 8.1885L7.54564 12.0456C7.42526 12.1662 7.35764 12.3296 7.35764 12.4999C7.35764 12.6703 7.42526 12.8337 7.54564 12.9542L11.4028 16.8114C11.5233 16.9317 11.6867 16.9994 11.8571 16.9994C12.0274 16.9994 12.1908 16.9317 12.3114 16.8114ZM12.4999 22.7856C18.1802 22.7856 22.7856 18.1802 22.7856 12.4999C22.7856 6.81964 18.1802 2.21422 12.4999 2.21422C6.81964 2.21422 2.21422 6.81964 2.21422 12.4999C2.21422 18.1802 6.81964 22.7856 12.4999 22.7856ZM21.4999 12.4999C21.4999 17.4705 17.4705 21.4999 12.4999 21.4999C7.52936 21.4999 3.49993 17.4705 3.49993 12.4999C3.49993 7.52936 7.52936 3.49993 12.4999 3.49993C17.4705 3.49993 21.4999 7.52936 21.4999 12.4999Z" fill="#282828"/>
</svg>
