<svg width="30" height="30" viewBox="0 0 30 30" fill="none" xmlns="http://www.w3.org/2000/svg">
<path d="M14.7643 20.3893C14.9148 20.2386 14.9993 20.0344 14.9993 19.8214C14.9993 19.6085 14.9148 19.4042 14.7643 19.2536L11.3143 15.8036L20.625 15.8036C20.8382 15.8036 21.0425 15.7189 21.1932 15.5682C21.3439 15.4175 21.4286 15.2131 21.4286 15C21.4286 14.7869 21.3439 14.5825 21.1932 14.4318C21.0425 14.2811 20.8382 14.1964 20.625 14.1964L11.3143 14.1964L14.7643 10.7464C14.8433 10.6729 14.9066 10.5842 14.9505 10.4856C14.9944 10.387 15.0181 10.2806 15.02 10.1727C15.0219 10.0648 15.002 9.95764 14.9616 9.85758C14.9212 9.75752 14.861 9.66663 14.7847 9.59032C14.7084 9.51402 14.6175 9.45386 14.5175 9.41344C14.4174 9.37303 14.3102 9.35318 14.2023 9.35509C14.0944 9.35699 13.988 9.38061 13.8895 9.42453C13.7909 9.46845 13.7022 9.53177 13.6286 9.61072L8.80718 14.4321C8.65669 14.5828 8.57217 14.7871 8.57217 15C8.57217 15.213 8.65669 15.4172 8.80718 15.5679L13.6286 20.3893C13.7793 20.5398 13.9835 20.6243 14.1965 20.6243C14.4094 20.6243 14.6137 20.5398 14.7643 20.3893V20.3893ZM15 27.8571C22.1004 27.8571 27.8572 22.1004 27.8572 15C27.8572 7.89965 22.1004 2.14286 15 2.14286C7.89968 2.14286 2.14289 7.89965 2.14289 15C2.14289 22.1004 7.89968 27.8571 15 27.8571ZM26.25 15C26.25 21.2132 21.2132 26.25 15 26.25C8.78682 26.25 3.75004 21.2132 3.75004 15C3.75004 8.78679 8.78682 3.75001 15 3.75001C21.2132 3.75001 26.25 8.78679 26.25 15Z" fill="white"/>
</svg>
