<svg width="25" height="25" viewBox="0 0 25 25" fill="none" xmlns="http://www.w3.org/2000/svg">
<path d="M12.6886 8.18864C12.5683 8.30918 12.5006 8.47257 12.5006 8.64293C12.5006 8.81328 12.5683 8.97668 12.6886 9.09721L15.4486 11.8572H8.00007C7.82957 11.8572 7.66606 11.9249 7.5455 12.0455C7.42494 12.1661 7.35721 12.3296 7.35721 12.5001C7.35721 12.6706 7.42494 12.8341 7.5455 12.9546C7.66606 13.0752 7.82957 13.1429 8.00007 13.1429H15.4486L12.6886 15.9029C12.6255 15.9618 12.5748 16.0328 12.5397 16.1116C12.5045 16.1905 12.4857 16.2756 12.4841 16.3619C12.4826 16.4482 12.4985 16.534 12.5308 16.614C12.5632 16.6941 12.6113 16.7668 12.6723 16.8278C12.7334 16.8889 12.8061 16.937 12.8861 16.9693C12.9662 17.0016 13.0519 17.0175 13.1382 17.016C13.2245 17.0145 13.3097 16.9956 13.3885 16.9605C13.4674 16.9253 13.5384 16.8747 13.5972 16.8115L17.4544 12.9544C17.5747 12.8338 17.6424 12.6704 17.6424 12.5001C17.6424 12.3297 17.5747 12.1663 17.4544 12.0458L13.5972 8.18864C13.4767 8.06826 13.3133 8.00064 13.1429 8.00064C12.9726 8.00064 12.8092 8.06826 12.6886 8.18864ZM12.5001 2.21436C6.81978 2.21436 2.21436 6.81978 2.21436 12.5001C2.21436 18.1804 6.81978 22.7858 12.5001 22.7858C18.1804 22.7858 22.7858 18.1804 22.7858 12.5001C22.7858 6.81978 18.1804 2.21436 12.5001 2.21436ZM3.50007 12.5001C3.50007 7.5295 7.5295 3.50007 12.5001 3.50007C17.4706 3.50007 21.5001 7.5295 21.5001 12.5001C21.5001 17.4706 17.4706 21.5001 12.5001 21.5001C7.5295 21.5001 3.50007 17.4706 3.50007 12.5001Z" fill="#282828"/>
</svg>
