<svg width="30" height="30" viewBox="0 0 30 30" fill="none" xmlns="http://www.w3.org/2000/svg">
<path d="M15.2357 9.61071C15.0852 9.76138 15.0007 9.96562 15.0007 10.1786C15.0007 10.3915 15.0852 10.5958 15.2357 10.7464L18.6857 14.1964H9.37496C9.16184 14.1964 8.95745 14.2811 8.80675 14.4318C8.65606 14.5825 8.57139 14.7869 8.57139 15C8.57139 15.2131 8.65606 15.4175 8.80675 15.5682C8.95745 15.7189 9.16184 15.8036 9.37496 15.8036H18.6857L15.2357 19.2536C15.1567 19.3271 15.0934 19.4158 15.0495 19.5144C15.0056 19.613 14.9819 19.7194 14.98 19.8273C14.9781 19.9352 14.998 20.0424 15.0384 20.1424C15.0788 20.2425 15.139 20.3334 15.2153 20.4097C15.2916 20.486 15.3825 20.5461 15.4825 20.5866C15.5826 20.627 15.6898 20.6468 15.7977 20.6449C15.9056 20.643 16.012 20.6194 16.1105 20.5755C16.2091 20.5316 16.2978 20.4682 16.3714 20.3893L21.1928 15.5679C21.3433 15.4172 21.4278 15.2129 21.4278 15C21.4278 14.787 21.3433 14.5828 21.1928 14.4321L16.3714 9.61071C16.2207 9.46023 16.0165 9.3757 15.8035 9.3757C15.5906 9.3757 15.3863 9.46023 15.2357 9.61071V9.61071ZM15 2.14285C7.89961 2.14285 2.14282 7.89964 2.14282 15C2.14282 22.1004 7.89961 27.8571 15 27.8571C22.1003 27.8571 27.8571 22.1004 27.8571 15C27.8571 7.89964 22.1003 2.14285 15 2.14285ZM3.74997 15C3.74997 8.78678 8.78675 3.75 15 3.75C21.2132 3.75 26.25 8.78678 26.25 15C26.25 21.2132 21.2132 26.25 15 26.25C8.78675 26.25 3.74997 21.2132 3.74997 15Z" fill="white"/>
</svg>
